<?xml version="1.0" encoding="UTF-8"?><svg xmlns="http://www.w3.org/2000/svg" viewBox="0 0 8.75 10"><defs><style>.d{fill:#fff;}.e{fill:#0c0c0c;}.f{fill:#191615;}</style></defs><g id="a"/><g id="b"><g id="c"><circle class="e" cx="4.38" cy="5.62" r="4.38"/><circle class="f" cx="4.38" cy="4.38" r="4.38"/><path class="d" d="M2.15,4.7v-.65h.83l.71,.11,.05-.12-.58-.43-.59-.59,.46-.46,.59,.58,.43,.59,.12-.05-.11-.72v-.82h.65v.82l-.11,.72,.12,.05,.43-.59,.59-.58,.46,.46-.58,.59-.59,.43,.05,.12,.71-.11h.83v.65h-.83l-.71-.11-.05,.12,.59,.43,.58,.59-.46,.46-.59-.59-.43-.59-.12,.05,.11,.72v.82h-.65v-.82l.11-.72-.12-.05-.43,.59-.59,.59-.46-.46,.59-.59,.58-.43-.05-.12-.71,.11h-.83Z"/></g></g></svg>