<?xml version="1.0" encoding="UTF-8"?><svg xmlns="http://www.w3.org/2000/svg" viewBox="0 0 143.75 75"><defs><style>.d{fill:#fff;}</style></defs><g id="a"/><g id="b"><g id="c"><rect class="d" x="81.25" y="62.5" width="6.25" height="6.25" rx="3.12" ry="3.12"/><rect class="d" x="81.25" y="56.25" width="6.25" height="6.25" rx="3.12" ry="3.12"/><rect class="d" x="68.75" y="68.75" width="6.25" height="6.25" rx="3.12" ry="3.12"/><rect class="d" x="75" y="68.75" width="6.25" height="6.25" rx="3.12" ry="3.12"/><rect class="d" x="62.5" y="62.5" width="6.25" height="6.25" rx="3.12" ry="3.12"/><rect class="d" x="62.5" y="56.25" width="6.25" height="6.25" rx="3.12" ry="3.12"/><rect class="d" x="75" y="50" width="6.25" height="6.25" rx="3.12" ry="3.12"/><rect class="d" x="68.75" y="50" width="6.25" height="6.25" rx="3.12" ry="3.12"/><rect class="d" x="31.25" y="62.5" width="6.25" height="6.25" rx="3.12" ry="3.12"/><rect class="d" x="18.75" y="68.75" width="6.25" height="6.25" rx="3.12" ry="3.12"/><rect class="d" x="25" y="68.75" width="6.25" height="6.25" rx="3.12" ry="3.12"/><rect class="d" x="12.5" y="62.5" width="6.25" height="6.25" rx="3.12" ry="3.12"/><rect class="d" x="0" y="56.25" width="6.25" height="6.25" rx="3.12" ry="3.12"/><rect class="d" x="6.25" y="56.25" width="6.25" height="6.25" rx="3.12" ry="3.12"/><rect class="d" x="12.5" y="56.25" width="6.25" height="6.25" rx="3.12" ry="3.12"/><rect class="d" x="18.75" y="56.25" width="6.25" height="6.25" rx="3.12" ry="3.12"/><rect class="d" x="25" y="56.25" width="6.25" height="6.25" rx="3.12" ry="3.12"/><rect class="d" x="31.25" y="56.25" width="6.25" height="6.25" rx="3.12" ry="3.12"/><rect class="d" x="37.5" y="56.25" width="6.25" height="6.25" rx="3.12" ry="3.12"/><rect class="d" x="43.75" y="56.25" width="6.25" height="6.25" rx="3.12" ry="3.12"/><rect class="d" x="50" y="56.25" width="6.25" height="6.25" rx="3.12" ry="3.12"/><rect class="d" x="56.25" y="56.25" width="6.25" height="6.25" rx="3.12" ry="3.12"/><rect class="d" x="0" y="50" width="6.25" height="6.25" rx="3.12" ry="3.12"/><rect class="d" x="0" y="43.75" width="6.25" height="6.25" rx="3.12" ry="3.12"/><rect class="d" x="0" y="37.5" width="6.25" height="6.25" rx="3.12" ry="3.12"/><rect class="d" x="0" y="31.25" width="6.25" height="6.25" rx="3.12" ry="3.12"/><rect class="d" x="0" y="25" width="6.25" height="6.25" rx="3.12" ry="3.12"/><rect class="d" x="0" y="18.75" width="6.25" height="6.25" rx="3.12" ry="3.12"/><rect class="d" x="0" y="12.5" width="6.25" height="6.25" rx="3.12" ry="3.12"/><rect class="d" x="0" y="6.25" width="6.25" height="6.25" rx="3.12" ry="3.12"/><rect class="d" x="6.25" y="0" width="6.25" height="6.25" rx="3.12" ry="3.12"/><rect class="d" x="12.5" y="0" width="6.25" height="6.25" rx="3.12" ry="3.12"/><rect class="d" x="18.75" y="0" width="6.25" height="6.25" rx="3.12" ry="3.12"/><rect class="d" x="25" y="0" width="6.25" height="6.25" rx="3.12" ry="3.12"/><rect class="d" x="31.25" y="0" width="6.25" height="6.25" rx="3.12" ry="3.12"/><rect class="d" x="37.5" y="0" width="6.25" height="6.25" rx="3.12" ry="3.12"/><rect class="d" x="43.75" y="0" width="6.25" height="6.25" rx="3.12" ry="3.12"/><rect class="d" x="50" y="0" width="6.25" height="6.25" rx="3.12" ry="3.12"/><rect class="d" x="56.25" y="0" width="6.25" height="6.25" rx="3.12" ry="3.12"/><rect class="d" x="62.5" y="0" width="6.25" height="6.25" rx="3.12" ry="3.12"/><rect class="d" x="68.75" y="0" width="6.25" height="6.25" rx="3.12" ry="3.12"/><rect class="d" x="75" y="0" width="6.25" height="6.25" rx="3.12" ry="3.12"/><rect class="d" x="81.25" y="0" width="6.25" height="6.25" rx="3.12" ry="3.12"/><rect class="d" x="87.5" y="0" width="6.25" height="6.25" rx="3.12" ry="3.12"/><rect class="d" x="93.75" y="0" width="6.25" height="6.25" rx="3.12" ry="3.12"/><rect class="d" x="100" y="0" width="6.25" height="6.25" rx="3.12" ry="3.12"/><rect class="d" x="106.25" y="0" width="6.25" height="6.25" rx="3.12" ry="3.12"/><rect class="d" x="112.5" y="0" width="6.25" height="6.25" rx="3.12" ry="3.12"/><rect class="d" x="118.75" y="0" width="6.25" height="6.25" rx="3.12" ry="3.12"/><rect class="d" x="125" y="0" width="6.25" height="6.25" rx="3.12" ry="3.12"/><rect class="d" x="131.25" y="0" width="6.25" height="6.25" rx="3.12" ry="3.12"/><rect class="d" x="50" y="6.25" width="6.25" height="6.25" rx="3.12" ry="3.12"/><rect class="d" x="50" y="12.5" width="6.25" height="6.25" rx="3.12" ry="3.12"/><rect class="d" x="50" y="18.75" width="6.25" height="6.25" rx="3.12" ry="3.12"/><rect class="d" x="50" y="25" width="6.25" height="6.25" rx="3.12" ry="3.12"/><rect class="d" x="50" y="31.25" width="6.25" height="6.25" rx="3.12" ry="3.12"/><rect class="d" x="50" y="37.5" width="6.25" height="6.25" rx="3.12" ry="3.12"/><rect class="d" x="50" y="43.75" width="6.25" height="6.25" rx="3.12" ry="3.12"/><rect class="d" x="50" y="50" width="6.25" height="6.25" rx="3.12" ry="3.12"/><rect class="d" x="6.25" y="31.25" width="6.25" height="6.25" rx="3.12" ry="3.12"/><rect class="d" x="12.5" y="31.25" width="6.25" height="6.25" rx="3.12" ry="3.12"/><rect class="d" x="18.75" y="31.25" width="6.25" height="6.25" rx="3.12" ry="3.12"/><rect class="d" x="25" y="31.25" width="6.25" height="6.25" rx="3.12" ry="3.12"/><rect class="d" x="31.25" y="31.25" width="6.25" height="6.25" rx="3.12" ry="3.12"/><rect class="d" x="37.5" y="31.25" width="6.25" height="6.25" rx="3.12" ry="3.12"/><rect class="d" x="43.75" y="31.25" width="6.25" height="6.25" rx="3.12" ry="3.12"/><rect class="d" x="37.5" y="43.75" width="6.25" height="6.25" rx="3.12" ry="3.12"/><rect class="d" x="12.5" y="43.75" width="6.25" height="6.25" rx="3.12" ry="3.12"/><rect class="d" x="87.5" y="56.25" width="6.25" height="6.25" rx="3.12" ry="3.12"/><rect class="d" x="93.75" y="56.25" width="6.25" height="6.25" rx="3.12" ry="3.12"/><rect class="d" x="100" y="56.25" width="6.25" height="6.25" rx="3.12" ry="3.12"/><rect class="d" x="125" y="56.25" width="6.25" height="6.25" rx="3.12" ry="3.12"/><rect class="d" x="125" y="62.5" width="6.25" height="6.25" rx="3.12" ry="3.12"/><rect class="d" x="112.5" y="68.75" width="6.25" height="6.25" rx="3.12" ry="3.12"/><rect class="d" x="118.75" y="68.75" width="6.25" height="6.25" rx="3.12" ry="3.12"/><rect class="d" x="106.25" y="56.25" width="6.25" height="6.25" rx="3.12" ry="3.12"/><rect class="d" x="106.25" y="62.5" width="6.25" height="6.25" rx="3.12" ry="3.12"/><rect class="d" x="112.5" y="50" width="6.25" height="6.25" rx="3.12" ry="3.12"/><rect class="d" x="118.75" y="50" width="6.25" height="6.25" rx="3.12" ry="3.12"/><rect class="d" x="131.25" y="56.25" width="6.25" height="6.25" rx="3.12" ry="3.12"/><rect class="d" x="137.5" y="6.25" width="6.25" height="6.25" rx="3.12" ry="3.12"/><rect class="d" x="137.5" y="12.5" width="6.25" height="6.25" rx="3.12" ry="3.12"/><rect class="d" x="137.5" y="18.75" width="6.25" height="6.25" rx="3.12" ry="3.12"/><rect class="d" x="137.5" y="25" width="6.25" height="6.25" rx="3.12" ry="3.12"/><rect class="d" x="137.5" y="31.25" width="6.25" height="6.25" rx="3.12" ry="3.12"/><rect class="d" x="137.5" y="37.5" width="6.25" height="6.25" rx="3.12" ry="3.12"/><rect class="d" x="137.5" y="43.75" width="6.25" height="6.25" rx="3.12" ry="3.12"/><rect class="d" x="137.5" y="50" width="6.25" height="6.25" rx="3.12" ry="3.12"/><rect class="d" x="75" y="6.25" width="6.25" height="6.25" rx="3.12" ry="3.12"/><rect class="d" x="75" y="12.5" width="6.25" height="6.25" rx="3.12" ry="3.12"/><rect class="d" x="75" y="18.75" width="6.25" height="6.25" rx="3.12" ry="3.12"/><rect class="d" x="75" y="25" width="6.25" height="6.25" rx="3.12" ry="3.12"/><rect class="d" x="100" y="6.25" width="6.25" height="6.25" rx="3.12" ry="3.12"/><rect class="d" x="100" y="12.5" width="6.25" height="6.25" rx="3.12" ry="3.12"/><rect class="d" x="100" y="18.75" width="6.25" height="6.25" rx="3.12" ry="3.12"/><rect class="d" x="100" y="25" width="6.25" height="6.25" rx="3.12" ry="3.12"/><rect class="d" x="118.75" y="18.75" width="6.25" height="6.25" rx="3.12" ry="3.12"/><rect class="d" x="118.75" y="25" width="6.25" height="6.25" rx="3.12" ry="3.12"/><rect class="d" x="125" y="6.25" width="6.25" height="6.25" rx="3.12" ry="3.12"/><rect class="d" x="125" y="12.5" width="6.25" height="6.25" rx="3.12" ry="3.12"/><rect class="d" x="100" y="31.25" width="6.25" height="6.25" rx="3.12" ry="3.12"/><rect class="d" x="56.25" y="31.25" width="6.25" height="6.25" rx="3.12" ry="3.12"/><rect class="d" x="62.5" y="31.25" width="6.25" height="6.25" rx="3.12" ry="3.12"/><rect class="d" x="68.75" y="31.25" width="6.25" height="6.25" rx="3.12" ry="3.12"/><rect class="d" x="75" y="31.25" width="6.25" height="6.25" rx="3.12" ry="3.12"/><rect class="d" x="81.25" y="31.25" width="6.25" height="6.25" rx="3.12" ry="3.12"/><rect class="d" x="87.5" y="31.25" width="6.25" height="6.25" rx="3.12" ry="3.12"/><rect class="d" x="93.75" y="31.25" width="6.25" height="6.25" rx="3.12" ry="3.12"/><rect class="d" x="112.5" y="31.25" width="6.25" height="6.25" rx="3.12" ry="3.12"/><rect class="d" x="106.25" y="31.25" width="6.25" height="6.25" rx="3.12" ry="3.12"/></g></g></svg>