<?xml version="1.0" encoding="UTF-8"?><svg xmlns="http://www.w3.org/2000/svg" viewBox="0 0 54.14 11.05"><defs><style>.d{fill:#fff;}.e{fill:red;}</style></defs><g id="a"/><g id="b"><g id="c"><path class="d" d="M3.37,2.53c.83,0,1.51,.22,2.02,.65,.52,.43,.84,1,.98,1.7l-1.49,.38c-.05-.35-.2-.66-.46-.91s-.62-.38-1.08-.38c-.22,0-.42,.04-.61,.12-.19,.08-.36,.19-.5,.34-.14,.15-.26,.33-.34,.54s-.13,.45-.13,.71v.07c0,.26,.04,.5,.13,.7,.08,.2,.2,.37,.34,.51,.14,.14,.31,.24,.5,.31,.19,.07,.4,.1,.61,.1,.46,0,.82-.12,1.06-.35,.24-.23,.4-.54,.47-.94l1.49,.37c-.14,.7-.46,1.27-.97,1.7-.51,.43-1.19,.65-2.03,.65-.44,0-.85-.07-1.23-.2s-.71-.33-.99-.59c-.28-.26-.5-.57-.66-.95s-.24-.8-.24-1.28v-.14c0-.48,.08-.91,.24-1.3s.38-.71,.67-.98c.28-.27,.62-.48,1-.62,.38-.14,.79-.22,1.22-.22m0-.25c-.46,0-.9,.08-1.31,.23-.41,.16-.77,.38-1.08,.68-.31,.29-.55,.65-.72,1.07-.17,.41-.26,.88-.26,1.39v.14c0,.51,.09,.98,.26,1.38,.17,.41,.42,.76,.72,1.03,.3,.28,.66,.49,1.07,.64,.41,.15,.85,.22,1.31,.22,.9,0,1.64-.24,2.2-.71,.55-.47,.9-1.09,1.05-1.85l.05-.23-.23-.06-1.49-.37-.26-.06-.05,.26c-.06,.34-.19,.6-.4,.8-.19,.19-.49,.28-.89,.28-.19,0-.37-.03-.53-.09-.16-.06-.3-.14-.42-.25-.12-.11-.21-.25-.28-.42-.07-.17-.11-.38-.11-.61v-.07c0-.23,.04-.44,.11-.62,.07-.18,.17-.33,.29-.46,.12-.12,.26-.22,.42-.29,.16-.07,.33-.1,.52-.1,.4,0,.69,.1,.9,.31,.22,.22,.34,.47,.39,.77l.04,.28,.27-.07,1.49-.38,.23-.06-.04-.23c-.15-.76-.51-1.38-1.06-1.85-.56-.47-1.29-.71-2.18-.71h0Z"/><path class="d" d="M10.64,2.53c.41,0,.8,.07,1.17,.2s.7,.34,.99,.6c.29,.26,.52,.59,.68,.97s.25,.81,.25,1.3v.14c0,.5-.08,.93-.25,1.31s-.4,.7-.68,.96-.62,.46-.99,.59-.76,.2-1.17,.2-.8-.07-1.17-.2-.7-.33-.99-.59-.52-.58-.68-.96-.25-.82-.25-1.31v-.14c0-.49,.08-.92,.25-1.3s.4-.7,.68-.97c.29-.26,.62-.46,.99-.6s.76-.2,1.17-.2m0,4.85c.22,0,.42-.04,.61-.11,.19-.07,.36-.18,.5-.31,.14-.14,.26-.3,.34-.5,.08-.2,.13-.42,.13-.67v-.24c0-.25-.04-.47-.13-.67s-.2-.36-.34-.5c-.14-.14-.31-.24-.5-.31-.19-.07-.4-.11-.61-.11s-.42,.04-.61,.11c-.19,.07-.36,.18-.5,.31-.14,.14-.26,.3-.34,.5s-.13,.42-.13,.67v.24c0,.25,.04,.47,.13,.67,.08,.2,.2,.36,.34,.5,.14,.14,.31,.24,.5,.31,.19,.07,.4,.11,.61,.11m0-5.1c-.43,0-.86,.07-1.26,.22-.4,.15-.76,.36-1.07,.65-.31,.29-.56,.64-.74,1.05-.18,.41-.27,.88-.27,1.4v.14c0,.53,.09,1.01,.27,1.42,.18,.41,.43,.76,.74,1.04,.31,.28,.67,.5,1.07,.64,.4,.15,.82,.22,1.26,.22s.86-.07,1.26-.22c.4-.15,.76-.36,1.07-.64,.31-.28,.56-.63,.74-1.04,.18-.41,.27-.89,.27-1.42v-.14c0-.52-.09-.99-.27-1.4-.18-.41-.43-.76-.74-1.05-.31-.29-.67-.5-1.07-.65-.4-.15-.82-.22-1.26-.22h0Zm0,4.85c-.19,0-.36-.03-.52-.09-.16-.06-.3-.15-.42-.26-.12-.11-.21-.25-.28-.41-.07-.16-.11-.35-.11-.57v-.24c0-.21,.04-.4,.11-.57,.07-.16,.17-.3,.28-.41,.12-.11,.26-.2,.42-.26,.16-.06,.34-.09,.52-.09s.36,.03,.53,.09c.16,.06,.3,.15,.42,.26,.12,.11,.21,.25,.28,.41,.07,.16,.11,.36,.11,.57v.24c0,.21-.04,.4-.11,.57-.07,.16-.17,.3-.28,.42-.12,.11-.26,.2-.42,.26-.16,.06-.34,.09-.52,.09h0Z"/><path class="d" d="M19.91,2.53c.4,0,.72,.13,.96,.4,.24,.27,.36,.64,.36,1.11v4.61h-1.51V4.47c0-.17-.04-.29-.13-.38s-.19-.13-.33-.13c-.16,0-.29,.05-.38,.14-.09,.1-.14,.24-.14,.43v4.1h-1.51V4.47c0-.17-.05-.29-.14-.38-.09-.08-.2-.13-.33-.13-.14,0-.26,.05-.36,.14s-.14,.24-.14,.43v4.1h-1.51V2.7h1.51v.58h.22c.05-.22,.16-.39,.33-.53,.17-.14,.4-.21,.68-.21,.26,0,.49,.07,.67,.21,.18,.14,.31,.32,.37,.53h.22c.06-.22,.2-.39,.4-.53,.2-.14,.46-.21,.76-.21m0-.25c-.35,0-.66,.09-.9,.25-.15,.11-.28,.23-.37,.37-.08-.14-.19-.26-.33-.37-.23-.17-.5-.26-.82-.26-.34,0-.62,.09-.84,.27-.05,.04-.1,.08-.14,.13v-.23h-2.01v6.45h2.01V4.55c0-.08,.01-.2,.07-.26,.05-.05,.11-.07,.18-.07,.07,0,.12,.02,.16,.06,.04,.03,.06,.1,.06,.19v4.43h2.01V4.55c0-.09,.01-.2,.07-.26,.03-.03,.08-.07,.2-.07,.09,0,.13,.03,.15,.05,.04,.04,.05,.13,.05,.2v4.43h2.01V4.04c0-.53-.14-.96-.42-1.28-.29-.32-.67-.49-1.15-.49h0Z"/><path class="e" d="M24.87,6.15c-.02,.06-.03,.12-.04,.18,0,.06-.01,.13-.01,.19,0,.3,.09,.53,.26,.69,.18,.16,.42,.23,.72,.23,.43,0,.76-.14,1-.42s.4-.68,.52-1.21l.66-3.12h1.51l-1.57,7.42c-.06,.27-.19,.5-.4,.67s-.45,.26-.72,.26h-3.48v-1.44h2.87c.22,0,.35-.12,.4-.36l.31-1.46h-.22c-.18,.36-.4,.62-.67,.79-.27,.16-.61,.25-1.02,.25-.24,0-.46-.04-.67-.13s-.39-.2-.55-.36c-.16-.16-.29-.35-.38-.58-.09-.23-.14-.49-.14-.79,0-.2,.02-.41,.07-.62l.47-2.22-.12-.08-.72,.5-.76-1.13,.88-.59c.15-.1,.31-.18,.47-.23,.16-.05,.32-.07,.48-.07,.18,0,.34,.03,.5,.09,.16,.06,.3,.14,.42,.25,.12,.11,.22,.24,.29,.4,.07,.16,.11,.33,.11,.53,0,.11-.01,.23-.04,.36l-.43,1.99Z"/><path class="e" d="M36.18,4.93c0,.56-.08,1.08-.24,1.55-.16,.48-.4,.89-.71,1.23-.31,.34-.7,.61-1.17,.81s-1.01,.29-1.63,.29c-.35,0-.68-.05-.99-.16-.31-.1-.58-.26-.81-.46-.23-.2-.42-.45-.55-.75-.14-.3-.2-.63-.2-1.01,0-.62,.1-1.17,.29-1.65,.19-.48,.45-.89,.79-1.23s.72-.59,1.18-.77c.45-.18,.94-.26,1.46-.26,.38,0,.72,.06,1.04,.17,.32,.12,.59,.28,.82,.49,.23,.21,.41,.46,.53,.76s.19,.62,.19,.98Zm-3.52,2.47c.29,0,.55-.07,.8-.19,.24-.12,.45-.28,.62-.47,.17-.2,.31-.43,.4-.69,.1-.26,.14-.54,.14-.84,0-.42-.11-.73-.34-.94-.22-.21-.52-.32-.9-.32-.29,0-.55,.06-.79,.19s-.45,.29-.62,.49-.31,.44-.41,.7c-.1,.26-.14,.54-.14,.83,0,.41,.11,.72,.34,.93,.22,.21,.52,.32,.9,.32Z"/><path class="e" d="M39.5,2.7l-.74,3.46c-.03,.14-.05,.27-.05,.4,0,.3,.08,.53,.25,.68s.39,.22,.67,.22c.42,0,.75-.14,.98-.41,.23-.28,.4-.67,.51-1.17l.67-3.17h1.51l-.98,4.54,.13,.07,.43-.31,.76,1.1-.56,.41c-.15,.11-.31,.19-.47,.24-.16,.05-.33,.07-.49,.07-.33,0-.62-.09-.86-.28-.25-.19-.39-.46-.42-.82h-.22c-.18,.41-.41,.69-.71,.86s-.64,.25-1.01,.25c-.52,0-.94-.16-1.27-.47-.33-.32-.49-.76-.49-1.33,0-.2,.02-.42,.07-.65l.79-3.67h1.51Z"/><path class="d" d="M48.21,.25V2.7h2.15v1.44h-2.15v2.71c0,.24,.11,.36,.32,.36h1.61v1.44h-2.52c-.27,0-.49-.09-.67-.26s-.26-.4-.26-.67v-3.58h-1.76v-1.44h1.76V.25h1.51m.25-.25h-2.01V2.45h-1.76v1.94h1.76v3.33c0,.34,.11,.62,.33,.85,.22,.22,.5,.34,.84,.34h2.77v-1.94h-1.86s-.06,0-.06,0c0,0-.02-.02-.02-.1v-2.46h2.15v-1.94h-2.15V0h0Z"/><path class="e" d="M52.46,7.98c0-.23,.08-.43,.25-.59s.36-.25,.59-.25,.43,.08,.59,.25,.25,.36,.25,.59-.08,.43-.25,.59-.36,.25-.59,.25-.43-.08-.59-.25-.25-.36-.25-.59Z"/></g></g></svg>