<?xml version="1.0" encoding="UTF-8"?><svg xmlns="http://www.w3.org/2000/svg" viewBox="0 0 106.25 75"><g id="a"/><g id="b"><g id="c"><rect x="0" y="56.25" width="6.25" height="6.25" rx="3.12" ry="3.12"/><rect x="0" y="50" width="6.25" height="6.25" rx="3.12" ry="3.12"/><rect x="0" y="43.75" width="6.25" height="6.25" rx="3.12" ry="3.12"/><rect x="25" y="68.75" width="6.25" height="6.25" rx="3.12" ry="3.12"/><rect x="18.75" y="68.75" width="6.25" height="6.25" rx="3.12" ry="3.12"/><rect x="12.5" y="68.75" width="6.25" height="6.25" rx="3.12" ry="3.12"/><rect x="6.25" y="62.5" width="6.25" height="6.25" rx="3.12" ry="3.12"/><rect x="31.25" y="62.5" width="6.25" height="6.25" rx="3.12" ry="3.12"/><rect x="37.5" y="56.25" width="6.25" height="6.25" rx="3.12" ry="3.12"/><rect x="37.5" y="50" width="6.25" height="6.25" rx="3.12" ry="3.12"/><rect x="37.5" y="43.75" width="6.25" height="6.25" rx="3.12" ry="3.12"/><rect x="31.25" y="37.5" width="6.25" height="6.25" rx="3.12" ry="3.12"/><rect x="6.25" y="37.5" width="6.25" height="6.25" rx="3.12" ry="3.12"/><rect x="18.75" y="50" width="6.25" height="6.25" rx="3.12" ry="3.12"/><rect x="25" y="43.75" width="6.25" height="6.25" rx="3.12" ry="3.12"/><rect x="25" y="37.5" width="6.25" height="6.25" rx="3.12" ry="3.12"/><rect x="25" y="31.25" width="6.25" height="6.25" rx="3.12" ry="3.12"/><rect x="18.75" y="31.25" width="6.25" height="6.25" rx="3.12" ry="3.12"/><rect x="12.5" y="31.25" width="6.25" height="6.25" rx="3.12" ry="3.12"/><rect x="25" y="25" width="6.25" height="6.25" rx="3.12" ry="3.12"/><rect x="25" y="18.75" width="6.25" height="6.25" rx="3.12" ry="3.12"/><rect x="31.25" y="18.75" width="6.25" height="6.25" rx="3.12" ry="3.12"/><rect x="37.5" y="18.75" width="6.25" height="6.25" rx="3.12" ry="3.12"/><rect x="43.75" y="18.75" width="6.25" height="6.25" rx="3.12" ry="3.12"/><rect x="50" y="18.75" width="6.25" height="6.25" rx="3.12" ry="3.12"/><rect x="56.25" y="18.75" width="6.25" height="6.25" rx="3.12" ry="3.12"/><rect x="62.5" y="18.75" width="6.25" height="6.25" rx="3.12" ry="3.12"/><rect x="25" y="12.5" width="6.25" height="6.25" rx="3.12" ry="3.12"/><rect x="18.75" y="6.25" width="6.25" height="6.25" rx="3.12" ry="3.12"/><rect x="6.25" y="0" width="6.25" height="6.25" rx="3.12" ry="3.12"/><rect x="62.5" y="12.5" width="6.25" height="6.25" rx="3.12" ry="3.12"/><rect x="68.75" y="12.5" width="6.25" height="6.25" rx="3.12" ry="3.12"/><rect x="37.5" y="25" width="6.25" height="6.25" rx="3.12" ry="3.12"/><rect x="43.75" y="31.25" width="6.25" height="6.25" rx="3.12" ry="3.12"/><rect x="50" y="37.5" width="6.25" height="6.25" rx="3.12" ry="3.12"/><rect x="62.5" y="43.75" width="6.25" height="6.25" rx="3.12" ry="3.12"/><rect x="81.25" y="50" width="6.25" height="6.25" rx="3.12" ry="3.12"/><rect x="75" y="50" width="6.25" height="6.25" rx="3.12" ry="3.12"/><rect x="68.75" y="50" width="6.25" height="6.25" rx="3.12" ry="3.12"/><rect x="75" y="43.75" width="6.25" height="6.25" rx="3.12" ry="3.12"/><rect x="68.75" y="37.5" width="6.25" height="6.25" rx="3.12" ry="3.12"/><rect x="62.5" y="31.25" width="6.25" height="6.25" rx="3.12" ry="3.12"/><rect x="62.5" y="25" width="6.25" height="6.25" rx="3.12" ry="3.12"/><rect x="87.5" y="68.75" width="6.25" height="6.25" rx="3.12" ry="3.12"/><rect x="81.25" y="68.75" width="6.25" height="6.25" rx="3.12" ry="3.12"/><rect x="75" y="68.75" width="6.25" height="6.25" rx="3.12" ry="3.12"/><rect x="68.75" y="62.5" width="6.25" height="6.25" rx="3.12" ry="3.12"/><rect x="93.75" y="62.5" width="6.25" height="6.25" rx="3.12" ry="3.12"/><rect x="100" y="56.25" width="6.25" height="6.25" rx="3.12" ry="3.12"/><rect x="100" y="50" width="6.25" height="6.25" rx="3.12" ry="3.12"/><rect x="100" y="43.75" width="6.25" height="6.25" rx="3.12" ry="3.12"/><rect x="93.75" y="37.5" width="6.25" height="6.25" rx="3.12" ry="3.12"/><rect x="75" y="31.25" width="6.25" height="6.25" rx="3.12" ry="3.12"/><rect x="81.25" y="31.25" width="6.25" height="6.25" rx="3.12" ry="3.12"/><rect x="87.5" y="31.25" width="6.25" height="6.25" rx="3.12" ry="3.12"/><rect x="62.5" y="50" width="6.25" height="6.25" rx="3.12" ry="3.12"/><rect x="12.5" y="0" width="6.25" height="6.25" rx="3.12" ry="3.12"/><rect x="12.5" y="6.25" width="6.25" height="6.25" rx="3.12" ry="3.12"/><rect x="56.25" y="43.75" width="6.25" height="6.25" rx="3.12" ry="3.12"/><rect x="62.5" y="56.25" width="6.25" height="6.25" rx="3.12" ry="3.12"/></g></g></svg>